<svg width="28" height="28" viewBox="0 0 28 28" fill="none" xmlns="http://www.w3.org/2000/svg">
<path d="M14 0.5C17.5804 0.5 21.0142 1.92236 23.5459 4.4541C26.0776 6.98584 27.5 10.4196 27.5 14C27.5 16.67 26.708 19.2799 25.2246 21.5C23.7412 23.7201 21.6328 25.4509 19.166 26.4727C16.6993 27.4943 13.9849 27.7611 11.3662 27.2402C8.74752 26.7193 6.34208 25.4339 4.4541 23.5459C2.56613 21.6579 1.28068 19.2525 0.759766 16.6338C0.238885 14.0151 0.505658 11.3007 1.52734 8.83398C2.54913 6.36718 4.27994 4.25879 6.5 2.77539C8.72006 1.292 11.33 0.500001 14 0.5ZM14 3C13.558 3 13.1338 3.17572 12.8213 3.48828C12.5088 3.80083 12.333 4.22504 12.333 4.66699V13.2373L6.77734 17.4111L6.76953 17.417L6.7627 17.4229C6.43998 17.685 6.22671 18.0586 6.16504 18.4697C6.10344 18.8808 6.19813 19.3003 6.42969 19.6455L6.43555 19.6543L6.44238 19.6641C6.59698 19.8731 6.79872 20.0429 7.03125 20.1592C7.26334 20.2752 7.51984 20.3335 7.7793 20.332L7.78027 20.333C8.1391 20.3314 8.48836 20.215 8.77637 20.001L8.77734 20L15 15.333L14.999 15.332C15.2069 15.1776 15.3764 14.9777 15.4922 14.7461C15.5795 14.5715 15.6348 14.3834 15.6562 14.1904L15.667 13.9971V4.66699C15.667 4.22504 15.4912 3.80083 15.1787 3.48828C14.8662 3.17572 14.442 3 14 3Z" fill="#F6BD00" stroke="black"/>
</svg>
